<?xml version="1.0" encoding="utf-8"?>
<!-- Generator: Adobe Illustrator 28.3.0, SVG Export Plug-In . SVG Version: 6.00 Build 0)  -->
<svg version="1.1" id="レイヤー_1" xmlns="http://www.w3.org/2000/svg" xmlns:xlink="http://www.w3.org/1999/xlink" x="0px"
	 y="0px" viewBox="0 0 30 30" style="enable-background:new 0 0 30 30;" xml:space="preserve">
<style type="text/css">
	.st0{fill-rule:evenodd;clip-rule:evenodd;}
	.st1{fill-rule:evenodd;clip-rule:evenodd;fill:none;}
</style>
<path class="st0" d="M15,3.2C8.4,3.2,3,8.6,3,15.3c0,5.4,3.4,9.9,8.2,11.5c0.6,0.1,0.8-0.3,0.8-0.6c0-0.3,0-1.3,0-2.2
	c-3.3,0.7-4-1.5-4-1.5c-0.5-1.4-1.3-1.8-1.3-1.8C5.6,20,6.7,20,6.7,20c1.2,0.1,1.8,1.3,1.8,1.3c1.1,1.8,2.8,1.3,3.5,1
	c0.1-0.8,0.4-1.3,0.8-1.6c-2.7-0.3-5.5-1.3-5.5-6c0-1.3,0.5-2.4,1.2-3.2C8.5,11.1,8,9.9,8.7,8.2c0,0,1-0.3,3.3,1.3
	c1-0.3,2-0.4,3-0.4c1,0,2,0.1,3,0.4c2.3-1.6,3.3-1.3,3.3-1.3c0.7,1.7,0.2,2.9,0.1,3.2c0.8,0.8,1.2,1.9,1.2,3.2c0,4.6-2.8,5.7-5.5,6
	c0.4,0.4,0.8,1.1,0.8,2.2c0,1.6,0,2.9,0,3.3c0,0.3,0.2,0.7,0.8,0.6c4.8-1.6,8.2-6.1,8.2-11.5C27,8.6,21.6,3.2,15,3.2z"/>
<rect class="st1" width="30" height="30"/>
</svg>
