<?xml version="1.0" encoding="utf-8"?>
<!-- Generator: Adobe Illustrator 28.3.0, SVG Export Plug-In . SVG Version: 6.00 Build 0)  -->
<svg version="1.1" id="_x31_0" xmlns="http://www.w3.org/2000/svg" xmlns:xlink="http://www.w3.org/1999/xlink" x="0px" y="0px"
	 viewBox="0 0 30 30" style="enable-background:new 0 0 30 30;" xml:space="preserve">
<style type="text/css">
	.st0{fill:none;}
</style>
<g>
	<path d="M20.1,2.8H9.9C6.1,2.8,3,5.9,3,9.7v10.6c0,3.8,3.1,6.9,6.9,6.9h10.2c3.8,0,6.9-3.1,6.9-6.9V9.7C27,5.9,23.9,2.8,20.1,2.8z
		 M5.5,9.7c0-2.5,2-4.4,4.4-4.4h10.2c2.5,0,4.4,2,4.4,4.4v10.6c0,2.5-2,4.4-4.4,4.4H9.9c-2.5,0-4.4-2-4.4-4.4
		C5.5,20.3,5.5,9.7,5.5,9.7z"/>
	<path d="M15,21.3c3.5,0,6.3-2.8,6.3-6.3S18.5,8.7,15,8.7S8.7,11.5,8.7,15S11.5,21.3,15,21.3z M15,10.7c2.4,0,4.3,1.9,4.3,4.3
		s-1.9,4.3-4.3,4.3s-4.3-1.9-4.3-4.3S12.6,10.7,15,10.7z"/>
	<ellipse cx="21.5" cy="8.5" rx="1.4" ry="1.4"/>
</g>
<rect class="st0" width="30" height="30"/>
</svg>
